<mxfile host="Electron" agent="Mozilla/5.0 (Windows NT 10.0; Win64; x64) AppleWebKit/537.36 (KHTML, like Gecko) draw.io/26.0.9 Chrome/128.0.6613.186 Electron/32.2.5 Safari/537.36" version="26.0.9">
  <diagram name="Page-1" id="IefbeOk1E63Zgb4KWvGG">
    <mxGraphModel dx="3640" dy="2144" grid="0" gridSize="10" guides="1" tooltips="1" connect="1" arrows="1" fold="1" page="0" pageScale="1" pageWidth="827" pageHeight="1169" math="0" shadow="0">
      <root>
        <mxCell id="0" />
        <mxCell id="1" parent="0" />
        <mxCell id="6oWEc9weATE8bWg3GW3J-7" value="" style="ellipse;whiteSpace=wrap;html=1;aspect=fixed;strokeWidth=6;" vertex="1" parent="1">
          <mxGeometry x="-226" y="170" width="186" height="186" as="geometry" />
        </mxCell>
        <mxCell id="6oWEc9weATE8bWg3GW3J-11" value="" style="rounded=0;whiteSpace=wrap;html=1;strokeWidth=6;" vertex="1" parent="1">
          <mxGeometry x="1047" y="173" width="308" height="180" as="geometry" />
        </mxCell>
        <mxCell id="6oWEc9weATE8bWg3GW3J-12" value="" style="rounded=0;whiteSpace=wrap;html=1;strokeWidth=6;" vertex="1" parent="1">
          <mxGeometry x="362" y="174" width="308" height="180" as="geometry" />
        </mxCell>
        <mxCell id="6oWEc9weATE8bWg3GW3J-13" value="" style="endArrow=none;html=1;rounded=0;fontSize=12;startSize=8;endSize=8;curved=1;entryX=0.5;entryY=0;entryDx=0;entryDy=0;strokeWidth=6;" edge="1" parent="1" target="6oWEc9weATE8bWg3GW3J-7">
          <mxGeometry width="50" height="50" relative="1" as="geometry">
            <mxPoint x="-133" y="22" as="sourcePoint" />
            <mxPoint x="933" y="245" as="targetPoint" />
          </mxGeometry>
        </mxCell>
        <mxCell id="6oWEc9weATE8bWg3GW3J-15" value="" style="endArrow=none;html=1;rounded=0;fontSize=12;startSize=8;endSize=8;curved=1;entryX=0.5;entryY=0;entryDx=0;entryDy=0;strokeWidth=6;" edge="1" parent="1">
          <mxGeometry width="50" height="50" relative="1" as="geometry">
            <mxPoint x="-127" y="358" as="sourcePoint" />
            <mxPoint x="-127" y="506" as="targetPoint" />
          </mxGeometry>
        </mxCell>
        <mxCell id="6oWEc9weATE8bWg3GW3J-16" value="" style="endArrow=none;html=1;rounded=0;fontSize=12;startSize=8;endSize=8;curved=1;strokeWidth=6;" edge="1" parent="1">
          <mxGeometry width="50" height="50" relative="1" as="geometry">
            <mxPoint x="223" y="23" as="sourcePoint" />
            <mxPoint x="1081" y="21" as="targetPoint" />
          </mxGeometry>
        </mxCell>
        <mxCell id="6oWEc9weATE8bWg3GW3J-18" value="" style="endArrow=none;html=1;rounded=0;fontSize=12;startSize=8;endSize=8;curved=1;strokeWidth=6;" edge="1" parent="1">
          <mxGeometry width="50" height="50" relative="1" as="geometry">
            <mxPoint x="228" y="505" as="sourcePoint" />
            <mxPoint x="1086" y="504" as="targetPoint" />
          </mxGeometry>
        </mxCell>
        <mxCell id="6oWEc9weATE8bWg3GW3J-19" value="" style="ellipse;whiteSpace=wrap;html=1;aspect=fixed;strokeWidth=6;" vertex="1" parent="1">
          <mxGeometry x="771" y="170" width="185" height="185" as="geometry" />
        </mxCell>
        <mxCell id="6oWEc9weATE8bWg3GW3J-22" value="" style="ellipse;whiteSpace=wrap;html=1;aspect=fixed;strokeWidth=6;" vertex="1" parent="1">
          <mxGeometry x="1463" y="168" width="186" height="186" as="geometry" />
        </mxCell>
        <mxCell id="6oWEc9weATE8bWg3GW3J-26" value="" style="endArrow=none;html=1;rounded=0;fontSize=12;startSize=8;endSize=8;curved=1;strokeWidth=6;" edge="1" parent="1">
          <mxGeometry width="50" height="50" relative="1" as="geometry">
            <mxPoint x="1081" y="18" as="sourcePoint" />
            <mxPoint x="1081" y="173" as="targetPoint" />
          </mxGeometry>
        </mxCell>
        <mxCell id="6oWEc9weATE8bWg3GW3J-28" value="" style="endArrow=none;html=1;rounded=0;fontSize=12;startSize=8;endSize=8;curved=1;strokeWidth=6;" edge="1" parent="1">
          <mxGeometry width="50" height="50" relative="1" as="geometry">
            <mxPoint x="1086" y="353" as="sourcePoint" />
            <mxPoint x="1086" y="507" as="targetPoint" />
          </mxGeometry>
        </mxCell>
        <mxCell id="6oWEc9weATE8bWg3GW3J-29" value="" style="endArrow=none;html=1;rounded=0;fontSize=12;startSize=8;endSize=8;curved=1;strokeWidth=6;" edge="1" parent="1">
          <mxGeometry width="50" height="50" relative="1" as="geometry">
            <mxPoint x="1330" y="353" as="sourcePoint" />
            <mxPoint x="1330" y="428" as="targetPoint" />
          </mxGeometry>
        </mxCell>
        <mxCell id="6oWEc9weATE8bWg3GW3J-30" value="" style="endArrow=none;html=1;rounded=0;fontSize=12;startSize=8;endSize=8;curved=1;strokeWidth=6;" edge="1" parent="1">
          <mxGeometry width="50" height="50" relative="1" as="geometry">
            <mxPoint x="1327" y="98" as="sourcePoint" />
            <mxPoint x="1327" y="173" as="targetPoint" />
          </mxGeometry>
        </mxCell>
        <mxCell id="6oWEc9weATE8bWg3GW3J-31" value="" style="endArrow=none;html=1;rounded=0;fontSize=12;startSize=8;endSize=8;curved=1;strokeWidth=6;" edge="1" parent="1">
          <mxGeometry width="50" height="50" relative="1" as="geometry">
            <mxPoint x="1556.67" y="353" as="sourcePoint" />
            <mxPoint x="1556.67" y="428" as="targetPoint" />
          </mxGeometry>
        </mxCell>
        <mxCell id="6oWEc9weATE8bWg3GW3J-32" value="" style="endArrow=none;html=1;rounded=0;fontSize=12;startSize=8;endSize=8;curved=1;entryX=0.49;entryY=0.002;entryDx=0;entryDy=0;entryPerimeter=0;strokeWidth=6;" edge="1" parent="1" target="6oWEc9weATE8bWg3GW3J-22">
          <mxGeometry width="50" height="50" relative="1" as="geometry">
            <mxPoint x="1553.67" y="98" as="sourcePoint" />
            <mxPoint x="1554" y="166" as="targetPoint" />
          </mxGeometry>
        </mxCell>
        <mxCell id="6oWEc9weATE8bWg3GW3J-33" value="" style="endArrow=none;html=1;rounded=0;fontSize=12;startSize=8;endSize=8;curved=1;strokeWidth=6;" edge="1" parent="1">
          <mxGeometry width="50" height="50" relative="1" as="geometry">
            <mxPoint x="1327" y="428" as="sourcePoint" />
            <mxPoint x="1815" y="429" as="targetPoint" />
          </mxGeometry>
        </mxCell>
        <mxCell id="6oWEc9weATE8bWg3GW3J-34" value="" style="endArrow=none;html=1;rounded=0;fontSize=12;startSize=8;endSize=8;curved=1;strokeWidth=6;" edge="1" parent="1">
          <mxGeometry width="50" height="50" relative="1" as="geometry">
            <mxPoint x="1324" y="98" as="sourcePoint" />
            <mxPoint x="1812" y="98" as="targetPoint" />
          </mxGeometry>
        </mxCell>
        <mxCell id="6oWEc9weATE8bWg3GW3J-35" value="" style="endArrow=none;html=1;rounded=0;fontSize=12;startSize=8;endSize=8;curved=1;strokeWidth=6;" edge="1" parent="1">
          <mxGeometry width="50" height="50" relative="1" as="geometry">
            <mxPoint x="641" y="354.47" as="sourcePoint" />
            <mxPoint x="641" y="429.47" as="targetPoint" />
          </mxGeometry>
        </mxCell>
        <mxCell id="6oWEc9weATE8bWg3GW3J-36" value="" style="endArrow=none;html=1;rounded=0;fontSize=12;startSize=8;endSize=8;curved=1;strokeWidth=6;" edge="1" parent="1">
          <mxGeometry width="50" height="50" relative="1" as="geometry">
            <mxPoint x="638" y="97" as="sourcePoint" />
            <mxPoint x="638" y="174.47" as="targetPoint" />
          </mxGeometry>
        </mxCell>
        <mxCell id="6oWEc9weATE8bWg3GW3J-37" value="" style="endArrow=none;html=1;rounded=0;fontSize=12;startSize=8;endSize=8;curved=1;strokeWidth=6;" edge="1" parent="1">
          <mxGeometry width="50" height="50" relative="1" as="geometry">
            <mxPoint x="867.6700000000001" y="354.47" as="sourcePoint" />
            <mxPoint x="868" y="432" as="targetPoint" />
          </mxGeometry>
        </mxCell>
        <mxCell id="6oWEc9weATE8bWg3GW3J-38" value="" style="endArrow=none;html=1;rounded=0;fontSize=12;startSize=8;endSize=8;curved=1;entryX=0.49;entryY=0.002;entryDx=0;entryDy=0;entryPerimeter=0;strokeWidth=6;" edge="1" parent="1">
          <mxGeometry width="50" height="50" relative="1" as="geometry">
            <mxPoint x="865" y="96" as="sourcePoint" />
            <mxPoint x="865" y="169.47" as="targetPoint" />
          </mxGeometry>
        </mxCell>
        <mxCell id="6oWEc9weATE8bWg3GW3J-39" value="" style="endArrow=none;html=1;rounded=0;fontSize=12;startSize=8;endSize=8;curved=1;strokeWidth=6;" edge="1" parent="1">
          <mxGeometry width="50" height="50" relative="1" as="geometry">
            <mxPoint x="638" y="429" as="sourcePoint" />
            <mxPoint x="870" y="429" as="targetPoint" />
          </mxGeometry>
        </mxCell>
        <mxCell id="6oWEc9weATE8bWg3GW3J-40" value="" style="endArrow=none;html=1;rounded=0;fontSize=12;startSize=8;endSize=8;curved=1;strokeWidth=6;" edge="1" parent="1">
          <mxGeometry width="50" height="50" relative="1" as="geometry">
            <mxPoint x="635" y="99" as="sourcePoint" />
            <mxPoint x="867" y="99" as="targetPoint" />
          </mxGeometry>
        </mxCell>
        <mxCell id="6oWEc9weATE8bWg3GW3J-41" value="" style="endArrow=none;html=1;rounded=0;fontSize=12;startSize=8;endSize=8;curved=1;strokeWidth=6;" edge="1" parent="1">
          <mxGeometry width="50" height="50" relative="1" as="geometry">
            <mxPoint x="390" y="22.5" as="sourcePoint" />
            <mxPoint x="390" y="174.5" as="targetPoint" />
          </mxGeometry>
        </mxCell>
        <mxCell id="6oWEc9weATE8bWg3GW3J-42" value="" style="endArrow=none;html=1;rounded=0;fontSize=12;startSize=8;endSize=8;curved=1;strokeWidth=6;" edge="1" parent="1">
          <mxGeometry width="50" height="50" relative="1" as="geometry">
            <mxPoint x="395" y="354.5" as="sourcePoint" />
            <mxPoint x="395" y="505.5" as="targetPoint" />
          </mxGeometry>
        </mxCell>
        <mxCell id="6oWEc9weATE8bWg3GW3J-43" value="" style="rounded=0;whiteSpace=wrap;html=1;strokeWidth=6;" vertex="1" parent="1">
          <mxGeometry x="1767" y="169" width="183" height="185" as="geometry" />
        </mxCell>
        <mxCell id="6oWEc9weATE8bWg3GW3J-44" value="" style="endArrow=none;html=1;rounded=0;fontSize=12;startSize=8;endSize=8;curved=1;strokeWidth=6;" edge="1" parent="1">
          <mxGeometry width="50" height="50" relative="1" as="geometry">
            <mxPoint x="1812" y="354" as="sourcePoint" />
            <mxPoint x="1812" y="429" as="targetPoint" />
          </mxGeometry>
        </mxCell>
        <mxCell id="6oWEc9weATE8bWg3GW3J-45" value="" style="endArrow=none;html=1;rounded=0;fontSize=12;startSize=8;endSize=8;curved=1;entryX=0.49;entryY=0.002;entryDx=0;entryDy=0;entryPerimeter=0;strokeWidth=6;" edge="1" parent="1">
          <mxGeometry width="50" height="50" relative="1" as="geometry">
            <mxPoint x="1809" y="98" as="sourcePoint" />
            <mxPoint x="1809.33" y="169" as="targetPoint" />
          </mxGeometry>
        </mxCell>
        <mxCell id="6oWEc9weATE8bWg3GW3J-46" value="" style="endArrow=none;html=1;rounded=0;fontSize=12;startSize=8;endSize=8;curved=1;strokeWidth=6;" edge="1" parent="1">
          <mxGeometry width="50" height="50" relative="1" as="geometry">
            <mxPoint x="30" y="21" as="sourcePoint" />
            <mxPoint x="30" y="174" as="targetPoint" />
          </mxGeometry>
        </mxCell>
        <mxCell id="6oWEc9weATE8bWg3GW3J-47" value="" style="endArrow=none;html=1;rounded=0;fontSize=12;startSize=8;endSize=8;curved=1;strokeWidth=6;" edge="1" parent="1">
          <mxGeometry width="50" height="50" relative="1" as="geometry">
            <mxPoint x="35" y="353" as="sourcePoint" />
            <mxPoint x="35" y="507" as="targetPoint" />
          </mxGeometry>
        </mxCell>
        <mxCell id="6oWEc9weATE8bWg3GW3J-48" value="" style="endArrow=none;html=1;rounded=0;fontSize=12;startSize=8;endSize=8;curved=1;strokeWidth=6;" edge="1" parent="1">
          <mxGeometry width="50" height="50" relative="1" as="geometry">
            <mxPoint x="226" y="22.5" as="sourcePoint" />
            <mxPoint x="226" y="174.5" as="targetPoint" />
          </mxGeometry>
        </mxCell>
        <mxCell id="6oWEc9weATE8bWg3GW3J-49" value="" style="endArrow=none;html=1;rounded=0;fontSize=12;startSize=8;endSize=8;curved=1;strokeWidth=6;" edge="1" parent="1">
          <mxGeometry width="50" height="50" relative="1" as="geometry">
            <mxPoint x="231" y="353" as="sourcePoint" />
            <mxPoint x="231" y="505.5" as="targetPoint" />
          </mxGeometry>
        </mxCell>
        <mxCell id="6oWEc9weATE8bWg3GW3J-50" value="" style="endArrow=none;html=1;rounded=0;fontSize=12;startSize=8;endSize=8;curved=1;strokeWidth=6;" edge="1" parent="1">
          <mxGeometry width="50" height="50" relative="1" as="geometry">
            <mxPoint x="-130" y="507" as="sourcePoint" />
            <mxPoint x="38" y="507" as="targetPoint" />
          </mxGeometry>
        </mxCell>
        <mxCell id="6oWEc9weATE8bWg3GW3J-53" value="" style="endArrow=none;html=1;rounded=0;fontSize=12;startSize=8;endSize=8;curved=1;strokeWidth=6;" edge="1" parent="1">
          <mxGeometry width="50" height="50" relative="1" as="geometry">
            <mxPoint x="-136" y="22" as="sourcePoint" />
            <mxPoint x="33" y="21" as="targetPoint" />
          </mxGeometry>
        </mxCell>
        <mxCell id="6oWEc9weATE8bWg3GW3J-54" value="" style="rounded=0;whiteSpace=wrap;html=1;fillColor=default;dashed=1;dashPattern=8 8;strokeWidth=3;" vertex="1" parent="1">
          <mxGeometry x="61" y="108.5" width="127" height="309" as="geometry" />
        </mxCell>
        <mxCell id="6oWEc9weATE8bWg3GW3J-55" value="" style="endArrow=none;html=1;rounded=0;fontSize=12;startSize=8;endSize=8;curved=1;strokeWidth=6;" edge="1" parent="1" source="6oWEc9weATE8bWg3GW3J-58">
          <mxGeometry width="50" height="50" relative="1" as="geometry">
            <mxPoint x="88" y="173" as="sourcePoint" />
            <mxPoint x="146" y="128" as="targetPoint" />
          </mxGeometry>
        </mxCell>
        <mxCell id="6oWEc9weATE8bWg3GW3J-56" value="" style="endArrow=none;html=1;rounded=0;fontSize=12;startSize=8;endSize=8;curved=1;strokeWidth=6;" edge="1" parent="1" source="6oWEc9weATE8bWg3GW3J-60">
          <mxGeometry width="50" height="50" relative="1" as="geometry">
            <mxPoint x="92" y="353" as="sourcePoint" />
            <mxPoint x="150" y="308" as="targetPoint" />
          </mxGeometry>
        </mxCell>
        <mxCell id="6oWEc9weATE8bWg3GW3J-59" value="" style="endArrow=none;html=1;rounded=0;fontSize=12;startSize=8;endSize=8;curved=1;" edge="1" parent="1" target="6oWEc9weATE8bWg3GW3J-58">
          <mxGeometry width="50" height="50" relative="1" as="geometry">
            <mxPoint x="88" y="173" as="sourcePoint" />
            <mxPoint x="146" y="128" as="targetPoint" />
          </mxGeometry>
        </mxCell>
        <mxCell id="6oWEc9weATE8bWg3GW3J-58" value="" style="ellipse;whiteSpace=wrap;html=1;aspect=fixed;strokeWidth=6;" vertex="1" parent="1">
          <mxGeometry x="85" y="170" width="7" height="7" as="geometry" />
        </mxCell>
        <mxCell id="6oWEc9weATE8bWg3GW3J-61" value="" style="endArrow=none;html=1;rounded=0;fontSize=12;startSize=8;endSize=8;curved=1;" edge="1" parent="1" target="6oWEc9weATE8bWg3GW3J-60">
          <mxGeometry width="50" height="50" relative="1" as="geometry">
            <mxPoint x="92" y="353" as="sourcePoint" />
            <mxPoint x="150" y="308" as="targetPoint" />
          </mxGeometry>
        </mxCell>
        <mxCell id="6oWEc9weATE8bWg3GW3J-60" value="" style="ellipse;whiteSpace=wrap;html=1;aspect=fixed;strokeWidth=6;" vertex="1" parent="1">
          <mxGeometry x="88" y="349" width="7" height="7" as="geometry" />
        </mxCell>
        <mxCell id="6oWEc9weATE8bWg3GW3J-62" value="" style="ellipse;whiteSpace=wrap;html=1;aspect=fixed;strokeWidth=6;" vertex="1" parent="1">
          <mxGeometry x="155" y="170" width="7" height="7" as="geometry" />
        </mxCell>
        <mxCell id="6oWEc9weATE8bWg3GW3J-64" value="" style="ellipse;whiteSpace=wrap;html=1;aspect=fixed;strokeWidth=6;" vertex="1" parent="1">
          <mxGeometry x="155" y="349" width="7" height="7" as="geometry" />
        </mxCell>
        <mxCell id="6oWEc9weATE8bWg3GW3J-69" value="" style="endArrow=none;html=1;rounded=0;fontSize=12;startSize=8;endSize=8;curved=1;entryX=1;entryY=0.5;entryDx=0;entryDy=0;strokeWidth=6;" edge="1" parent="1" target="6oWEc9weATE8bWg3GW3J-64">
          <mxGeometry width="50" height="50" relative="1" as="geometry">
            <mxPoint x="234" y="353" as="sourcePoint" />
            <mxPoint x="280" y="314" as="targetPoint" />
          </mxGeometry>
        </mxCell>
        <mxCell id="6oWEc9weATE8bWg3GW3J-70" value="" style="endArrow=none;html=1;rounded=0;fontSize=12;startSize=8;endSize=8;curved=1;exitX=0;exitY=0.5;exitDx=0;exitDy=0;strokeWidth=6;" edge="1" parent="1" source="6oWEc9weATE8bWg3GW3J-60">
          <mxGeometry width="50" height="50" relative="1" as="geometry">
            <mxPoint x="77" y="356" as="sourcePoint" />
            <mxPoint x="32" y="353" as="targetPoint" />
          </mxGeometry>
        </mxCell>
        <mxCell id="6oWEc9weATE8bWg3GW3J-71" value="" style="endArrow=none;html=1;rounded=0;fontSize=12;startSize=8;endSize=8;curved=1;entryX=1;entryY=0.5;entryDx=0;entryDy=0;strokeWidth=6;" edge="1" parent="1" target="6oWEc9weATE8bWg3GW3J-62">
          <mxGeometry width="50" height="50" relative="1" as="geometry">
            <mxPoint x="229" y="174" as="sourcePoint" />
            <mxPoint x="164" y="149" as="targetPoint" />
          </mxGeometry>
        </mxCell>
        <mxCell id="6oWEc9weATE8bWg3GW3J-72" value="" style="endArrow=none;html=1;rounded=0;fontSize=12;startSize=8;endSize=8;curved=1;exitX=0;exitY=0.5;exitDx=0;exitDy=0;strokeWidth=6;" edge="1" parent="1" source="6oWEc9weATE8bWg3GW3J-58">
          <mxGeometry width="50" height="50" relative="1" as="geometry">
            <mxPoint x="114" y="199" as="sourcePoint" />
            <mxPoint x="27" y="174" as="targetPoint" />
          </mxGeometry>
        </mxCell>
        <mxCell id="6oWEc9weATE8bWg3GW3J-74" value="&lt;font style=&quot;font-size: 75px;&quot;&gt;M&lt;/font&gt;" style="text;html=1;align=center;verticalAlign=middle;whiteSpace=wrap;rounded=0;" vertex="1" parent="1">
          <mxGeometry x="780.5" y="222" width="166" height="84" as="geometry" />
        </mxCell>
        <mxCell id="6oWEc9weATE8bWg3GW3J-75" value="&lt;font style=&quot;font-size: 75px;&quot;&gt;S&lt;/font&gt;" style="text;html=1;align=center;verticalAlign=middle;whiteSpace=wrap;rounded=0;" vertex="1" parent="1">
          <mxGeometry x="1526" y="246" width="60" height="30" as="geometry" />
        </mxCell>
        <mxCell id="6oWEc9weATE8bWg3GW3J-76" value="&lt;font style=&quot;font-size: 70px;&quot;&gt;+&lt;/font&gt;" style="text;html=1;align=center;verticalAlign=middle;whiteSpace=wrap;rounded=0;" vertex="1" parent="1">
          <mxGeometry x="-240" y="147" width="60" height="30" as="geometry" />
        </mxCell>
        <mxCell id="6oWEc9weATE8bWg3GW3J-77" value="&lt;font style=&quot;font-size: 70px;&quot;&gt;-&lt;/font&gt;" style="text;html=1;align=center;verticalAlign=middle;whiteSpace=wrap;rounded=0;" vertex="1" parent="1">
          <mxGeometry x="-240" y="356" width="60" height="30" as="geometry" />
        </mxCell>
        <mxCell id="6oWEc9weATE8bWg3GW3J-78" value="&lt;font style=&quot;font-size: 70px;&quot;&gt;+&lt;/font&gt;" style="text;html=1;align=center;verticalAlign=middle;whiteSpace=wrap;rounded=0;" vertex="1" parent="1">
          <mxGeometry x="610" y="190" width="60" height="30" as="geometry" />
        </mxCell>
        <mxCell id="6oWEc9weATE8bWg3GW3J-79" value="&lt;font style=&quot;font-size: 70px;&quot;&gt;-&lt;/font&gt;" style="text;html=1;align=center;verticalAlign=middle;whiteSpace=wrap;rounded=0;" vertex="1" parent="1">
          <mxGeometry x="610" y="311" width="60" height="30" as="geometry" />
        </mxCell>
        <mxCell id="6oWEc9weATE8bWg3GW3J-80" value="&lt;font style=&quot;font-size: 70px;&quot;&gt;+&lt;/font&gt;" style="text;html=1;align=center;verticalAlign=middle;whiteSpace=wrap;rounded=0;" vertex="1" parent="1">
          <mxGeometry x="1295" y="187" width="60" height="30" as="geometry" />
        </mxCell>
        <mxCell id="6oWEc9weATE8bWg3GW3J-81" value="&lt;font style=&quot;font-size: 70px;&quot;&gt;-&lt;/font&gt;" style="text;html=1;align=center;verticalAlign=middle;whiteSpace=wrap;rounded=0;" vertex="1" parent="1">
          <mxGeometry x="1295" y="308" width="60" height="30" as="geometry" />
        </mxCell>
        <mxCell id="6oWEc9weATE8bWg3GW3J-82" value="" style="endArrow=classic;html=1;rounded=0;fontSize=12;startSize=8;endSize=8;curved=1;strokeWidth=6;" edge="1" parent="1">
          <mxGeometry width="50" height="50" relative="1" as="geometry">
            <mxPoint x="-273" y="379.5" as="sourcePoint" />
            <mxPoint x="-273" y="148.5" as="targetPoint" />
          </mxGeometry>
        </mxCell>
        <mxCell id="6oWEc9weATE8bWg3GW3J-84" value="" style="endArrow=classic;html=1;rounded=0;fontSize=12;startSize=8;endSize=8;curved=1;strokeWidth=6;" edge="1" parent="1">
          <mxGeometry width="50" height="50" relative="1" as="geometry">
            <mxPoint x="1386" y="339" as="sourcePoint" />
            <mxPoint x="1386" y="190" as="targetPoint" />
          </mxGeometry>
        </mxCell>
        <mxCell id="6oWEc9weATE8bWg3GW3J-86" value="&lt;span style=&quot;font-size: 35px;&quot;&gt;5V&lt;/span&gt;" style="text;html=1;align=center;verticalAlign=middle;whiteSpace=wrap;rounded=0;" vertex="1" parent="1">
          <mxGeometry x="1377" y="253" width="82" height="30" as="geometry" />
        </mxCell>
        <mxCell id="6oWEc9weATE8bWg3GW3J-88" value="&lt;font style=&quot;font-size: 51px;&quot;&gt;PCB&lt;/font&gt;" style="text;html=1;align=center;verticalAlign=middle;whiteSpace=wrap;rounded=0;" vertex="1" parent="1">
          <mxGeometry x="1761" y="246.5" width="184" height="30" as="geometry" />
        </mxCell>
        <mxCell id="6oWEc9weATE8bWg3GW3J-92" value="&lt;font style=&quot;font-size: 75px;&quot;&gt;RT&lt;/font&gt;" style="text;html=1;align=center;verticalAlign=middle;whiteSpace=wrap;rounded=0;" vertex="1" parent="1">
          <mxGeometry x="1081" y="220" width="129" height="86" as="geometry" />
        </mxCell>
        <mxCell id="6oWEc9weATE8bWg3GW3J-93" value="&lt;font style=&quot;font-size: 75px;&quot;&gt;RV&lt;/font&gt;" style="text;html=1;align=center;verticalAlign=middle;whiteSpace=wrap;rounded=0;" vertex="1" parent="1">
          <mxGeometry x="388" y="218.5" width="129" height="86" as="geometry" />
        </mxCell>
        <mxCell id="6oWEc9weATE8bWg3GW3J-96" value="&lt;font style=&quot;font-size: 75px;&quot;&gt;B&lt;/font&gt;" style="text;html=1;align=center;verticalAlign=middle;whiteSpace=wrap;rounded=0;" vertex="1" parent="1">
          <mxGeometry x="-216" y="215" width="166" height="84" as="geometry" />
        </mxCell>
        <mxCell id="6oWEc9weATE8bWg3GW3J-99" value="&lt;font style=&quot;font-size: 75px;&quot;&gt;In&lt;/font&gt;" style="text;html=1;align=center;verticalAlign=middle;whiteSpace=wrap;rounded=0;" vertex="1" parent="1">
          <mxGeometry x="85" y="215" width="77" height="84" as="geometry" />
        </mxCell>
        <mxCell id="6oWEc9weATE8bWg3GW3J-103" value="&lt;span style=&quot;font-size: 75px; font-weight: 400;&quot;&gt;Schéma électrique de l&#39;alimentation de la voiture&amp;nbsp;&lt;/span&gt;" style="swimlane;whiteSpace=wrap;html=1;startSize=185;strokeWidth=20;fillColor=#FFCCCC;" vertex="1" parent="1">
          <mxGeometry x="-418" y="-236" width="2451" height="977" as="geometry" />
        </mxCell>
        <mxCell id="6oWEc9weATE8bWg3GW3J-104" value="" style="group" vertex="1" connectable="0" parent="6oWEc9weATE8bWg3GW3J-103">
          <mxGeometry x="1705" y="693" width="739" height="251" as="geometry" />
        </mxCell>
        <mxCell id="6oWEc9weATE8bWg3GW3J-85" value="&lt;font style=&quot;font-size: 35px;&quot;&gt;&lt;b&gt;RV :&lt;/b&gt; Régulateur&amp;nbsp;&lt;/font&gt;&lt;span style=&quot;font-size: 35px; background-color: transparent; color: light-dark(rgb(0, 0, 0), rgb(255, 255, 255));&quot;&gt;de&amp;nbsp;&lt;/span&gt;&lt;span style=&quot;font-size: 35px; background-color: transparent; color: light-dark(rgb(0, 0, 0), rgb(255, 255, 255));&quot;&gt;Vitesse&lt;/span&gt;" style="text;html=1;align=center;verticalAlign=middle;whiteSpace=wrap;rounded=0;" vertex="1" parent="6oWEc9weATE8bWg3GW3J-104">
          <mxGeometry y="43" width="554" height="30" as="geometry" />
        </mxCell>
        <mxCell id="6oWEc9weATE8bWg3GW3J-87" value="&lt;font style=&quot;font-size: 35px;&quot;&gt;&lt;b&gt;RT :&lt;/b&gt; Régulateur&amp;nbsp;&lt;/font&gt;&lt;span style=&quot;font-size: 35px; background-color: transparent; color: light-dark(rgb(0, 0, 0), rgb(255, 255, 255));&quot;&gt;de&amp;nbsp;&lt;/span&gt;&lt;span style=&quot;font-size: 35px; background-color: transparent; color: light-dark(rgb(0, 0, 0), rgb(255, 255, 255));&quot;&gt;Tension&lt;/span&gt;" style="text;html=1;align=center;verticalAlign=middle;whiteSpace=wrap;rounded=0;" vertex="1" parent="6oWEc9weATE8bWg3GW3J-104">
          <mxGeometry y="91" width="562" height="30" as="geometry" />
        </mxCell>
        <mxCell id="6oWEc9weATE8bWg3GW3J-94" value="&lt;span style=&quot;font-size: 35px;&quot;&gt;&lt;b&gt;M :&lt;/b&gt; Moteur de la voiture&lt;/span&gt;" style="text;html=1;align=center;verticalAlign=middle;whiteSpace=wrap;rounded=0;" vertex="1" parent="6oWEc9weATE8bWg3GW3J-104">
          <mxGeometry x="56" y="137" width="426" height="30" as="geometry" />
        </mxCell>
        <mxCell id="6oWEc9weATE8bWg3GW3J-95" value="&lt;span style=&quot;font-size: 35px;&quot;&gt;&lt;b&gt;S :&lt;/b&gt; Servo - Moteur&lt;/span&gt;" style="text;html=1;align=center;verticalAlign=middle;whiteSpace=wrap;rounded=0;" vertex="1" parent="6oWEc9weATE8bWg3GW3J-104">
          <mxGeometry x="21" y="184" width="425" height="30" as="geometry" />
        </mxCell>
        <mxCell id="6oWEc9weATE8bWg3GW3J-98" value="&lt;span style=&quot;font-size: 35px;&quot;&gt;&lt;b&gt;B :&lt;/b&gt;&amp;nbsp;Batterie&lt;/span&gt;" style="text;html=1;align=center;verticalAlign=middle;whiteSpace=wrap;rounded=0;" vertex="1" parent="6oWEc9weATE8bWg3GW3J-104">
          <mxGeometry x="21" width="311" height="30" as="geometry" />
        </mxCell>
        <mxCell id="6oWEc9weATE8bWg3GW3J-100" value="&lt;span style=&quot;font-size: 35px;&quot;&gt;&lt;b&gt;In :&lt;/b&gt;&amp;nbsp;Interrupteur ( allumage de la voiture )&lt;/span&gt;" style="text;html=1;align=center;verticalAlign=middle;whiteSpace=wrap;rounded=0;" vertex="1" parent="6oWEc9weATE8bWg3GW3J-104">
          <mxGeometry x="67" y="221" width="672" height="30" as="geometry" />
        </mxCell>
        <mxCell id="6oWEc9weATE8bWg3GW3J-105" value="&lt;span style=&quot;font-size: 35px;&quot;&gt;7,4 V&lt;/span&gt;" style="text;html=1;align=center;verticalAlign=middle;whiteSpace=wrap;rounded=0;" vertex="1" parent="6oWEc9weATE8bWg3GW3J-103">
          <mxGeometry x="21" y="502" width="115" height="30" as="geometry" />
        </mxCell>
      </root>
    </mxGraphModel>
  </diagram>
</mxfile>
